<?xml version="1.0" encoding="utf-8"?>
<svg width="600" height="600" viewBox="0 0 600 600" fill="none" xmlns="http://www.w3.org/2000/svg">
  <g id="SingleElement">
    <path id="Oval" d="M0 300C0 134.314 134.314 0 300 0C465.686 0 600 134.314 600 300C600 465.686 465.686 600 300 600C134.314 600 0 465.686 0 300Z" fill="#6777EF" fill-rule="evenodd" />
    <path id="Oval" d="M0 250C0 111.929 111.929 0 250 0C388.071 0 500 111.929 500 250C500 388.071 388.071 500 250 500C111.929 500 0 388.071 0 250Z" fill="#FFFFFF" fill-rule="evenodd" transform="translate(50 50)" />
    <path d="M57.0374 57.0551L34.9915 183.05L3.33252 183.05L25.5493 57.0551L57.0374 57.0551ZM184.438 84.3562L141.415 84.3562L124.069 183.05L92.4096 183.05L109.713 84.3562L66.5185 84.3562L71.3891 57.0551L189.352 57.0551L184.438 84.3562ZM233.625 183.05L234.693 155.578L205.469 155.578L196.882 183.05L163.471 183.05L208.417 57.0551L266.181 57.0551L266.865 183.05L233.625 183.05ZM226.447 87.6887L212.604 132.122L235.548 132.122L237.47 87.6887L226.447 87.6887ZM338.622 57.0551L357.336 117.425L397.582 57.0551L430.694 57.0551L408.434 183.05L376.775 183.05L389.379 111.999L362.42 154.339L339.519 154.339L327.599 111.999L314.996 183.05L283.508 183.05L305.724 57.0551L338.622 57.0551Z" fill="#6777EF" transform="translate(85 172)" />
  </g>
</svg>