<?xml version="1.0" encoding="utf-8"?>
<svg width="600" height="600" viewBox="0 0 600 600" fill="none" xmlns="http://www.w3.org/2000/svg">
  <g id="SingleElement">
    <path id="Oval" d="M0 300C0 134.314 134.314 0 300 0C465.686 0 600 134.314 600 300C600 465.686 465.686 600 300 600C134.314 600 0 465.686 0 300Z" fill="#6777EF" fill-rule="evenodd" />
    <path id="Oval" d="M0 250C0 111.929 111.929 0 250 0C388.071 0 500 111.929 500 250C500 388.071 388.071 500 250 500C111.929 500 0 388.071 0 250Z" fill="#FFFFFF" fill-rule="evenodd" transform="translate(50 50)" />
    <path d="M150.047 301.248L5.48438 301.248L42.0469 93.8964L186.609 93.8964L178.594 138.826L85.8516 138.826L79.1719 177.709L155.812 177.709L147.727 222.639L71.1562 222.639L65.3906 256.318L158.133 256.318L150.047 301.248ZM293.748 91.8574Q363.147 91.8574 363.147 148.6Q363.147 158.092 361.178 169.06L351.053 226.646Q344.162 266.654 321.1 285.99Q298.108 305.256 256.342 305.256Q214.576 305.256 198.123 285.99Q186.943 272.701 186.943 249.428Q186.943 239.021 189.193 226.646L199.318 169.06Q212.818 91.8574 293.748 91.8574ZM264.076 260.607Q278.49 260.607 287.139 253.154Q295.787 245.631 299.233 225.521L309.006 170.185Q309.92 164.42 309.92 159.85Q309.92 136.506 286.295 136.506Q256.623 137.068 250.858 170.185L241.084 225.521Q239.889 232.693 239.889 240.498Q239.889 260.607 264.076 260.607Z" fill="#6777EF" transform="translate(116 89)" />
  </g>
</svg>